<svg xmlns="http://www.w3.org/2000/svg" width="50.242" height="50.242" viewBox="0 0 50.242 50.242"><defs><style>.a{fill:#fff;}</style></defs><g transform="translate(-1 -1)"><path class="a" d="M50.431,25.31H43.474L51,17.78a.809.809,0,0,0,0-1.146l-15.4-15.4a.809.809,0,0,0-1.146,0L10.389,25.31H1.81a.81.81,0,0,0-.81.81V47.19a.81.81,0,0,0,.81.81H13.63l3,3a.81.81,0,0,0,1.146,0l3-3H50.431a.81.81,0,0,0,.81-.81V26.121A.81.81,0,0,0,50.431,25.31ZM35.035,2.956,49.285,17.207l-8.1,8.1H34.995a8.911,8.911,0,0,0-17.749,0H12.68ZM22.253,25.31a1.622,1.622,0,0,1,.429-1.481l1.482,1.481Zm8.742,0a3.165,3.165,0,0,0-.29-.335,3.245,3.245,0,0,0-4.584,0l-2.292-2.292a1.66,1.66,0,0,1,2.292,0l1.146-1.146a3.242,3.242,0,0,0-4.583,0h0l-.573-.573-1.146,1.146.573.573a3.216,3.216,0,0,0-.926,2.628H18.875a7.289,7.289,0,0,1,14.49,0H30.995ZM17.207,49.285,15.922,48h2.57Zm32.414-2.906h-47V26.931h47Z"/><path class="a" d="M28.621,45.914H27a3.245,3.245,0,0,0,3.241,3.241v.81h1.621v-.81a3.241,3.241,0,0,0,0-6.483V39.431a1.622,1.622,0,0,1,1.621,1.621H35.1a3.245,3.245,0,0,0-3.241-3.241V37H30.241v.81a3.241,3.241,0,0,0,0,6.483v3.241A1.622,1.622,0,0,1,28.621,45.914Zm0-4.862a1.622,1.622,0,0,1,1.621-1.621v3.241A1.622,1.622,0,0,1,28.621,41.052Zm3.241,3.241a1.621,1.621,0,0,1,0,3.241Z" transform="translate(-4.931 -6.828)"/><path class="a" d="M29.914,51.828A8.914,8.914,0,1,0,21,42.914,8.924,8.924,0,0,0,29.914,51.828Zm0-16.207a7.293,7.293,0,1,1-7.293,7.293A7.3,7.3,0,0,1,29.914,35.621Z" transform="translate(-3.793 -6.259)"/><path class="a" d="M56.535,50.4V35.81a.81.81,0,0,0-.81-.81H46v1.621h8.914V49.586H46v1.621h9.724A.81.81,0,0,0,56.535,50.4Z" transform="translate(-8.534 -6.448)"/><path class="a" d="M5.81,51.207h9.724V49.586H6.621V36.621h8.914V35H5.81a.81.81,0,0,0-.81.81V50.4A.81.81,0,0,0,5.81,51.207Z" transform="translate(-0.759 -6.448)"/><path class="a" d="M46,49h1.621v1.621H46Z" transform="translate(-8.534 -9.103)"/><path class="a" d="M50,49h1.621v1.621H50Z" transform="translate(-9.293 -9.103)"/><path class="a" d="M46,39h1.621v1.621H46Z" transform="translate(-8.534 -7.207)"/><path class="a" d="M50,39h1.621v1.621H50Z" transform="translate(-9.293 -7.207)"/><path class="a" d="M41.529,8.958,50.7,18.127l-6.3,6.3,1.146,1.146L52.415,18.7a.809.809,0,0,0,0-1.146L42.1,7.24a.834.834,0,0,0-1.146,0L34.08,14.115l1.146,1.146Z" transform="translate(-6.274 -1.14)"/><path class="a" d="M0,0H1.621V1.621H0Z" transform="translate(35.823 20.999) rotate(-45)"/><path class="a" d="M0,0H1.621V1.621H0Z" transform="translate(38.114 18.707) rotate(-45)"/><path class="a" d="M0,0H1.621V1.621H0Z" transform="translate(30.094 15.27) rotate(-45)"/><path class="a" d="M0,0H1.621V1.621H0Z" transform="translate(32.385 12.978) rotate(-45)"/><path class="a" d="M12,39h1.621v1.621H12Z" transform="translate(-2.086 -7.207)"/><path class="a" d="M16,39h1.621v1.621H16Z" transform="translate(-2.845 -7.207)"/><path class="a" d="M12,49h1.621v1.621H12Z" transform="translate(-2.086 -9.103)"/><path class="a" d="M16,49h1.621v1.621H16Z" transform="translate(-2.845 -9.103)"/></g></svg>