<svg xmlns="http://www.w3.org/2000/svg" width="18.961" height="18.988" viewBox="0 0 18.961 18.988"><g transform="translate(-0.344 0)"><g transform="translate(0.344 0)"><path d="M15.337,38.07a1.868,1.868,0,0,0-1.355-.621,1.931,1.931,0,0,0-1.371.617l-1.266,1.262c-.1-.056-.208-.108-.309-.16-.144-.072-.281-.14-.4-.212a13.764,13.764,0,0,1-3.3-3.006A8.12,8.12,0,0,1,6.26,34.243c.329-.3.633-.613.93-.914.112-.112.224-.228.337-.341a1.839,1.839,0,0,0,0-2.773L6.432,29.121c-.124-.124-.252-.252-.373-.381-.24-.248-.493-.5-.753-.745a1.9,1.9,0,0,0-1.343-.589A1.963,1.963,0,0,0,2.6,28L2.593,28,1.231,29.378a2.932,2.932,0,0,0-.87,1.864,7.025,7.025,0,0,0,.513,2.974A17.256,17.256,0,0,0,3.94,39.329a18.859,18.859,0,0,0,6.28,4.917,9.784,9.784,0,0,0,3.527,1.042c.084,0,.172.008.252.008a3.02,3.02,0,0,0,2.312-.994c0-.008.012-.012.016-.02a9.111,9.111,0,0,1,.7-.725c.172-.164.349-.337.521-.517a2,2,0,0,0,.605-1.387,1.926,1.926,0,0,0-.617-1.375Zm1.435,4.22s0,0,0,0c-.156.168-.317.321-.489.489a10.537,10.537,0,0,0-.773.8A1.932,1.932,0,0,1,14,44.218c-.06,0-.124,0-.184,0a8.692,8.692,0,0,1-3.126-.938,17.8,17.8,0,0,1-5.915-4.633,16.27,16.27,0,0,1-2.885-4.805,5.722,5.722,0,0,1-.449-2.509A1.84,1.84,0,0,1,2,30.139l1.367-1.367a.911.911,0,0,1,.609-.285.857.857,0,0,1,.585.281l.012.012c.244.228.477.465.721.717.124.128.252.256.381.389l1.094,1.094a.765.765,0,0,1,0,1.242c-.116.116-.228.232-.345.345-.337.345-.657.665-1.006.978-.008.008-.016.012-.02.02a.817.817,0,0,0-.208.91l.012.036a8.784,8.784,0,0,0,1.294,2.112l0,0a14.709,14.709,0,0,0,3.559,3.238,5.473,5.473,0,0,0,.493.269c.144.072.281.14.4.212.016.008.032.02.048.028a.869.869,0,0,0,.4.1A.857.857,0,0,0,12,40.2l1.371-1.371a.907.907,0,0,1,.605-.3.816.816,0,0,1,.577.293l.008.008,2.208,2.208A.792.792,0,0,1,16.772,42.29Z" transform="translate(-0.344 -26.308)"/><path d="M245.389,87a5.158,5.158,0,0,1,4.2,4.2.538.538,0,0,0,.533.449.715.715,0,0,0,.092-.008.542.542,0,0,0,.445-.625,6.236,6.236,0,0,0-5.082-5.082.544.544,0,0,0-.625.441A.535.535,0,0,0,245.389,87Z" transform="translate(-235.141 -82.482)"/><path d="M257.772,8.376A10.269,10.269,0,0,0,249.4.008a.54.54,0,1,0-.176,1.066,9.173,9.173,0,0,1,7.478,7.478.538.538,0,0,0,.533.449.716.716,0,0,0,.092-.008A.531.531,0,0,0,257.772,8.376Z" transform="translate(-238.819 0)"/></g></g></svg>