<svg xmlns="http://www.w3.org/2000/svg" width="49.99" height="50" viewBox="0 0 49.99 50"><defs><style>.a{fill:#fff;}</style></defs><path class="a" d="M54.239,27.877l-2.513-1.763a22.18,22.18,0,0,0-44.343,0L4.876,27.877a.737.737,0,0,0-.313.6v7.826a.735.735,0,0,0,.31.6l2.812,2.009a.737.737,0,0,0,.426.138h2.8a.736.736,0,0,0,.736-.736V26.552c0-.01,0-.02,0-.031a17.906,17.906,0,1,1,35.812,0,.3.3,0,0,0,.006.08V38.315a.736.736,0,0,0,.736.736h.664V39.9a4.691,4.691,0,0,1-3.974,4.626,16.663,16.663,0,0,0,1.42-6.741V27a16.76,16.76,0,0,0-33.52,0V37.785a16.755,16.755,0,0,0,31.327,8.273h.059a6.167,6.167,0,0,0,6.16-6.16v-.847H51a.737.737,0,0,0,.428-.137l2.812-2.009a.736.736,0,0,0,.308-.6V28.479a.737.737,0,0,0-.313-.6ZM29.554,11.711A15.307,15.307,0,0,1,44.843,27v3.963A15.015,15.015,0,0,1,30.191,23.48a.736.736,0,0,0-1.273,0,15.015,15.015,0,0,1-14.652,7.483V27A15.307,15.307,0,0,1,29.555,11.711Zm0,41.362A15.307,15.307,0,0,1,14.267,37.785V32.442c.511.047,1.023.079,1.536.079a16.691,16.691,0,0,0,13.751-7.29,16.691,16.691,0,0,0,13.755,7.29c.513,0,1.025-.032,1.536-.079v5.344a15.193,15.193,0,0,1-1.6,6.8h-6.9a2.4,2.4,0,0,0-2.281-1.661H31.142a2.4,2.4,0,1,0,0,4.794h2.915a2.4,2.4,0,0,0,2.281-1.662H42.4a15.284,15.284,0,0,1-12.846,7.016Zm5.425-7.706a.925.925,0,0,1-.921.881H31.142a.925.925,0,0,1,0-1.85h2.915a.925.925,0,0,1,.921.881c0,.015,0,.029,0,.045S34.978,45.352,34.979,45.368Zm-24.8-7.787H8.347L6.034,35.928V28.864l2.308-1.619h1.832ZM29.555,7.513A19.491,19.491,0,0,0,10.207,25.771H8.862a20.715,20.715,0,0,1,41.385,0H48.9A19.491,19.491,0,0,0,29.555,7.509ZM53.081,35.931l-2.313,1.652H48.94V27.243h1.832l2.308,1.619Z" transform="translate(-4.563 -4.547)"/></svg>