<svg xmlns="http://www.w3.org/2000/svg" width="50.248" height="35.984" viewBox="0 0 50.248 35.984"><defs><style>.a{fill:#fff;}</style></defs><path class="a" d="M46.73,109.317l-1.3-5.892a.872.872,0,0,0,.623-.871v-.95a3.547,3.547,0,0,0-3.3-3.741H36.82V95.9a1.745,1.745,0,0,0-1.626-1.841H4.983A1.745,1.745,0,0,0,3.357,95.9v16.151a.844.844,0,0,0,.787.891.844.844,0,0,0,.787-.891V95.9a.056.056,0,0,1,.052-.059H35.194a.056.056,0,0,1,.052.059v16.152a.793.793,0,1,0,1.574,0v-1.01h9.285a2.63,2.63,0,0,1,2.445,2.019H46.1a.844.844,0,0,0-.787.891v1.9a2.646,2.646,0,0,0,2.465,2.791h.892v3.919H46.617a4.818,4.818,0,0,0-9.418,0H36.82v-6.71a.793.793,0,1,0-1.574,0v6.71H18.923a5.081,5.081,0,0,0-4.709-3.8,5.08,5.08,0,0,0-4.709,3.8H4.983a.056.056,0,0,1-.052-.059v-1.96H8.34a.9.9,0,0,0,0-1.781H.787a.9.9,0,0,0,0,1.781h2.57v1.96a1.745,1.745,0,0,0,1.626,1.841h4.25c0,.02,0,.039,0,.059,0,3.11,2.235,5.641,4.983,5.641S19.2,127.515,19.2,124.4c0-.02,0-.04,0-.059H36.926c0,.02,0,.039,0,.059,0,3.11,2.235,5.641,4.983,5.641s4.983-2.531,4.983-5.641c0-.02,0-.04,0-.059h2.572a.844.844,0,0,0,.787-.891v-9.5A4.556,4.556,0,0,0,46.73,109.317Zm-9.91-9.673h5.927a1.858,1.858,0,0,1,1.731,1.96v.059H36.82Zm0,9.619v-5.819h6.991l1.285,5.819H36.82Zm-22.606,19a3.889,3.889,0,0,1,0-7.719,3.889,3.889,0,0,1,0,7.719Zm27.694,0a3.889,3.889,0,0,1,0-7.719,3.889,3.889,0,0,1,0,7.719Zm6.766-11.4h-.892a.957.957,0,0,1-.892-1.01v-1.01h1.783v2.019Z" transform="translate(0 -94.062)"/><g transform="translate(12.588 29.375)"><g transform="translate(0 0)"><path class="a" d="M129.893,350.6a1.626,1.626,0,1,0,1.626,1.626A1.628,1.628,0,0,0,129.893,350.6Z" transform="translate(-128.267 -350.597)"/></g></g><g transform="translate(40.282 29.375)"><g transform="translate(0 0)"><path class="a" d="M412.081,350.6a1.626,1.626,0,1,0,1.626,1.626A1.628,1.628,0,0,0,412.081,350.6Z" transform="translate(-410.455 -350.597)"/></g></g><g transform="translate(20.141 24.852)"><g transform="translate(0 0)"><path class="a" d="M217.763,316.393H206.014a.787.787,0,0,0,0,1.574h11.749a.787.787,0,0,0,0-1.574Z" transform="translate(-205.227 -316.393)"/></g></g><g transform="translate(1.678 21.029)"><path class="a" d="M27.959,282.188H17.889a.787.787,0,0,0,0,1.574H27.959a.787.787,0,1,0,0-1.574Z" transform="translate(-17.102 -282.188)"/></g><g transform="translate(14.267 8.953)"><path class="a" d="M158.462,171.253a.787.787,0,0,0-1.113,0l-7,7-3.64-3.64a.787.787,0,0,0-1.113,1.113l4.2,4.2a.787.787,0,0,0,1.112,0l7.553-7.553A.787.787,0,0,0,158.462,171.253Z" transform="translate(-145.37 -171.023)"/></g></svg>